ISO-10303-21;
HEADER;
/* Generated by software containing ST-Developer
 * from STEP Tools, Inc. (www.steptools.com) 
 */
/* OPTION: using custom renumber hook */

FILE_DESCRIPTION(
/* description */ ('STEP AP203'),
/* implementation_level */ '2;1');

FILE_NAME(
/* name */ 'WSSB40-30-5',
/* time_stamp */ '2025-11-12T23:06:22+01:00',
/* author */ ('License CC BY-ND 4.0'),
/* organization */ ('CADENAS'),
/* preprocessor_version */ 'ST-DEVELOPER v19.3',
/* originating_system */ 'PARTsolutions',
/* authorisation */ '  ');

FILE_SCHEMA (('CONFIG_CONTROL_DESIGN'));
ENDSEC;

DATA;
#10=PROPERTY_DEFINITION_REPRESENTATION(#14,#12);
#11=PROPERTY_DEFINITION_REPRESENTATION(#15,#13);
#12=REPRESENTATION('',(#16),#197);
#13=REPRESENTATION('',(#17),#197);
#14=PROPERTY_DEFINITION('pmi validation property','',#202);
#15=PROPERTY_DEFINITION('pmi validation property','',#202);
#16=VALUE_REPRESENTATION_ITEM('number of annotations',COUNT_MEASURE(0.));
#17=VALUE_REPRESENTATION_ITEM('number of views',COUNT_MEASURE(0.));
#18=SHAPE_REPRESENTATION_RELATIONSHIP('','',#119,#19);
#19=ADVANCED_BREP_SHAPE_REPRESENTATION('',(#117),#197);
#20=CYLINDRICAL_SURFACE('',#128,20.);
#21=CYLINDRICAL_SURFACE('',#136,15.);
#22=PLANE('',#124);
#23=PLANE('',#132);
#24=ORIENTED_EDGE('',*,*,#40,.T.);
#25=ORIENTED_EDGE('',*,*,#41,.F.);
#26=ORIENTED_EDGE('',*,*,#42,.T.);
#27=ORIENTED_EDGE('',*,*,#40,.F.);
#28=ORIENTED_EDGE('',*,*,#43,.T.);
#29=ORIENTED_EDGE('',*,*,#42,.F.);
#30=ORIENTED_EDGE('',*,*,#44,.T.);
#31=ORIENTED_EDGE('',*,*,#43,.F.);
#32=ORIENTED_EDGE('',*,*,#45,.T.);
#33=ORIENTED_EDGE('',*,*,#44,.F.);
#34=ORIENTED_EDGE('',*,*,#46,.T.);
#35=ORIENTED_EDGE('',*,*,#45,.F.);
#36=ORIENTED_EDGE('',*,*,#47,.T.);
#37=ORIENTED_EDGE('',*,*,#46,.F.);
#38=ORIENTED_EDGE('',*,*,#41,.T.);
#39=ORIENTED_EDGE('',*,*,#47,.F.);
#40=EDGE_CURVE('',#48,#48,#56,.T.);
#41=EDGE_CURVE('',#49,#49,#57,.T.);
#42=EDGE_CURVE('',#50,#50,#58,.T.);
#43=EDGE_CURVE('',#51,#51,#59,.T.);
#44=EDGE_CURVE('',#52,#52,#60,.T.);
#45=EDGE_CURVE('',#53,#53,#61,.T.);
#46=EDGE_CURVE('',#54,#54,#62,.T.);
#47=EDGE_CURVE('',#55,#55,#63,.T.);
#48=VERTEX_POINT('',#174);
#49=VERTEX_POINT('',#176);
#50=VERTEX_POINT('',#179);
#51=VERTEX_POINT('',#182);
#52=VERTEX_POINT('',#185);
#53=VERTEX_POINT('',#188);
#54=VERTEX_POINT('',#191);
#55=VERTEX_POINT('',#194);
#56=CIRCLE('',#122,15.5);
#57=CIRCLE('',#123,15.);
#58=CIRCLE('',#125,19.5);
#59=CIRCLE('',#127,20.);
#60=CIRCLE('',#129,20.);
#61=CIRCLE('',#131,19.5);
#62=CIRCLE('',#133,15.5);
#63=CIRCLE('',#135,15.);
#64=EDGE_LOOP('',(#24));
#65=EDGE_LOOP('',(#25));
#66=EDGE_LOOP('',(#26));
#67=EDGE_LOOP('',(#27));
#68=EDGE_LOOP('',(#28));
#69=EDGE_LOOP('',(#29));
#70=EDGE_LOOP('',(#30));
#71=EDGE_LOOP('',(#31));
#72=EDGE_LOOP('',(#32));
#73=EDGE_LOOP('',(#33));
#74=EDGE_LOOP('',(#34));
#75=EDGE_LOOP('',(#35));
#76=EDGE_LOOP('',(#36));
#77=EDGE_LOOP('',(#37));
#78=EDGE_LOOP('',(#38));
#79=EDGE_LOOP('',(#39));
#80=FACE_BOUND('',#64,.T.);
#81=FACE_BOUND('',#65,.T.);
#82=FACE_BOUND('',#66,.T.);
#83=FACE_BOUND('',#67,.T.);
#84=FACE_BOUND('',#68,.T.);
#85=FACE_BOUND('',#69,.T.);
#86=FACE_BOUND('',#70,.T.);
#87=FACE_BOUND('',#71,.T.);
#88=FACE_BOUND('',#72,.T.);
#89=FACE_BOUND('',#73,.T.);
#90=FACE_BOUND('',#74,.T.);
#91=FACE_BOUND('',#75,.T.);
#92=FACE_BOUND('',#76,.T.);
#93=FACE_BOUND('',#77,.T.);
#94=FACE_BOUND('',#78,.T.);
#95=FACE_BOUND('',#79,.T.);
#96=CONICAL_SURFACE('',#121,15.,0.785398163397448);
#97=CONICAL_SURFACE('',#126,19.5,0.785398163397449);
#98=CONICAL_SURFACE('',#130,20.,0.785398163397451);
#99=CONICAL_SURFACE('',#134,15.5,0.785398163397451);
#100=ADVANCED_FACE('',(#80,#81),#96,.F.);
#101=ADVANCED_FACE('',(#82,#83),#22,.T.);
#102=ADVANCED_FACE('',(#84,#85),#97,.T.);
#103=ADVANCED_FACE('',(#86,#87),#20,.T.);
#104=ADVANCED_FACE('',(#88,#89),#98,.T.);
#105=ADVANCED_FACE('',(#90,#91),#23,.T.);
#106=ADVANCED_FACE('',(#92,#93),#99,.F.);
#107=ADVANCED_FACE('',(#94,#95),#21,.F.);
#108=CLOSED_SHELL('',(#100,#101,#102,#103,#104,#105,#106,#107));
#109=STYLED_ITEM('',(#110),#117);
#110=PRESENTATION_STYLE_ASSIGNMENT((#111));
#111=SURFACE_STYLE_USAGE(.BOTH.,#112);
#112=SURFACE_SIDE_STYLE('',(#113));
#113=SURFACE_STYLE_FILL_AREA(#114);
#114=FILL_AREA_STYLE('',(#115));
#115=FILL_AREA_STYLE_COLOUR('',#116);
#116=COLOUR_RGB('',0.689999997615814,0.689999997615814,0.689999997615814);
#117=MANIFOLD_SOLID_BREP('WSSB40-30-5',#108);
#118=SHAPE_DEFINITION_REPRESENTATION(#202,#119);
#119=SHAPE_REPRESENTATION('WSSB40-30-5',(#120),#197);
#120=AXIS2_PLACEMENT_3D('',#171,#137,#138);
#121=AXIS2_PLACEMENT_3D('',#172,#139,#140);
#122=AXIS2_PLACEMENT_3D('',#173,#141,#142);
#123=AXIS2_PLACEMENT_3D('',#175,#143,#144);
#124=AXIS2_PLACEMENT_3D('',#177,#145,#146);
#125=AXIS2_PLACEMENT_3D('',#178,#147,#148);
#126=AXIS2_PLACEMENT_3D('',#180,#149,#150);
#127=AXIS2_PLACEMENT_3D('',#181,#151,#152);
#128=AXIS2_PLACEMENT_3D('',#183,#153,#154);
#129=AXIS2_PLACEMENT_3D('',#184,#155,#156);
#130=AXIS2_PLACEMENT_3D('',#186,#157,#158);
#131=AXIS2_PLACEMENT_3D('',#187,#159,#160);
#132=AXIS2_PLACEMENT_3D('',#189,#161,#162);
#133=AXIS2_PLACEMENT_3D('',#190,#163,#164);
#134=AXIS2_PLACEMENT_3D('',#192,#165,#166);
#135=AXIS2_PLACEMENT_3D('',#193,#167,#168);
#136=AXIS2_PLACEMENT_3D('',#195,#169,#170);
#137=DIRECTION('',(0.,0.,1.));
#138=DIRECTION('',(1.,0.,0.));
#139=DIRECTION('',(-1.,-6.12323399573677E-17,0.));
#140=DIRECTION('',(6.12323399573677E-17,-1.,0.));
#141=DIRECTION('',(-1.,-6.12323399573677E-17,0.));
#142=DIRECTION('',(6.12323399573677E-17,-1.,0.));
#143=DIRECTION('',(-1.,-6.12323399573677E-17,0.));
#144=DIRECTION('',(6.12323399573677E-17,-1.,0.));
#145=DIRECTION('',(-1.,-6.12323399573677E-17,0.));
#146=DIRECTION('',(6.12323399573677E-17,-1.,0.));
#147=DIRECTION('',(-1.,-6.12323399573677E-17,0.));
#148=DIRECTION('',(6.12323399573677E-17,-1.,0.));
#149=DIRECTION('',(1.,6.12323399573677E-17,0.));
#150=DIRECTION('',(-6.12323399573677E-17,1.,0.));
#151=DIRECTION('',(-1.,-6.12323399573677E-17,0.));
#152=DIRECTION('',(6.12323399573677E-17,-1.,0.));
#153=DIRECTION('',(-1.,-6.12323399573677E-17,0.));
#154=DIRECTION('',(6.12323399573677E-17,-1.,0.));
#155=DIRECTION('',(-1.,-6.12323399573677E-17,0.));
#156=DIRECTION('',(6.12323399573677E-17,-1.,0.));
#157=DIRECTION('',(-1.,-6.12323399573677E-17,0.));
#158=DIRECTION('',(6.12323399573677E-17,-1.,0.));
#159=DIRECTION('',(-1.,-6.12323399573677E-17,0.));
#160=DIRECTION('',(6.12323399573677E-17,-1.,0.));
#161=DIRECTION('',(1.,6.12323399573677E-17,0.));
#162=DIRECTION('',(-6.12323399573677E-17,1.,0.));
#163=DIRECTION('',(-1.,-6.12323399573677E-17,0.));
#164=DIRECTION('',(6.12323399573677E-17,-1.,0.));
#165=DIRECTION('',(1.,6.12323399573677E-17,0.));
#166=DIRECTION('',(-6.12323399573677E-17,1.,0.));
#167=DIRECTION('',(-1.,-6.12323399573677E-17,0.));
#168=DIRECTION('',(6.12323399573677E-17,-1.,0.));
#169=DIRECTION('',(-1.,-6.12323399573677E-17,0.));
#170=DIRECTION('',(6.12323399573677E-17,-1.,0.));
#171=CARTESIAN_POINT('',(0.,0.,0.));
#172=CARTESIAN_POINT('',(0.5,3.06161699786839E-17,0.));
#173=CARTESIAN_POINT('',(0.,0.,0.));
#174=CARTESIAN_POINT('',(9.49101269339199E-16,-15.5,0.));
#175=CARTESIAN_POINT('',(0.5,3.06161699786839E-17,0.));
#176=CARTESIAN_POINT('',(0.500000000000001,-15.,0.));
#177=CARTESIAN_POINT('',(9.46395420135291E-16,-15.5,0.));
#178=CARTESIAN_POINT('',(0.,0.,0.));
#179=CARTESIAN_POINT('',(1.19403062916867E-15,-19.5,0.));
#180=CARTESIAN_POINT('',(0.,0.,0.));
#181=CARTESIAN_POINT('',(0.5,3.06161699786838E-17,0.));
#182=CARTESIAN_POINT('',(0.500000000000001,-20.,0.));
#183=CARTESIAN_POINT('',(-3.,-1.83697019872103E-16,0.));
#184=CARTESIAN_POINT('',(4.5,2.75545529808155E-16,0.));
#185=CARTESIAN_POINT('',(4.5,-20.,0.));
#186=CARTESIAN_POINT('',(4.5,2.75545529808155E-16,0.));
#187=CARTESIAN_POINT('',(5.,3.06161699786838E-16,0.));
#188=CARTESIAN_POINT('',(5.,-19.5,0.));
#189=CARTESIAN_POINT('',(5.,-19.5,0.));
#190=CARTESIAN_POINT('',(5.,3.06161699786838E-16,0.));
#191=CARTESIAN_POINT('',(5.,-15.5,0.));
#192=CARTESIAN_POINT('',(5.,3.06161699786838E-16,0.));
#193=CARTESIAN_POINT('',(4.5,2.75545529808155E-16,0.));
#194=CARTESIAN_POINT('',(4.5,-15.,0.));
#195=CARTESIAN_POINT('',(-3.,-1.83697019872103E-16,0.));
#196=MECHANICAL_DESIGN_GEOMETRIC_PRESENTATION_REPRESENTATION('',(#109),
#197);
#197=(
GEOMETRIC_REPRESENTATION_CONTEXT(3)
GLOBAL_UNCERTAINTY_ASSIGNED_CONTEXT((#198))
GLOBAL_UNIT_ASSIGNED_CONTEXT((#201,#200,#199))
REPRESENTATION_CONTEXT('WSSB40-30-5','TOP_LEVEL_ASSEMBLY_PART')
);
#198=UNCERTAINTY_MEASURE_WITH_UNIT(LENGTH_MEASURE(0.005),#201,
'DISTANCE_ACCURACY_VALUE','Maximum Tolerance applied to model');
#199=(
NAMED_UNIT(*)
SI_UNIT($,.STERADIAN.)
SOLID_ANGLE_UNIT()
);
#200=(
NAMED_UNIT(*)
PLANE_ANGLE_UNIT()
SI_UNIT($,.RADIAN.)
);
#201=(
LENGTH_UNIT()
NAMED_UNIT(*)
SI_UNIT(.MILLI.,.METRE.)
);
#202=PRODUCT_DEFINITION_SHAPE('','',#203);
#203=PRODUCT_DEFINITION('','',#205,#204);
#204=DESIGN_CONTEXT('',#211,'design');
#205=PRODUCT_DEFINITION_FORMATION_WITH_SPECIFIED_SOURCE('','',#207,
 .NOT_KNOWN.);
#206=PRODUCT_RELATED_PRODUCT_CATEGORY('','',(#207));
#207=PRODUCT('WSSB40-30-5','WSSB40-30-5','WSSB40-30-5',(#209));
#208=PRODUCT_CATEGORY('','');
#209=MECHANICAL_CONTEXT('',#211,'mechanical');
#210=APPLICATION_PROTOCOL_DEFINITION('international standard',
'config_control_design',2010,#211);
#211=APPLICATION_CONTEXT(
'configuration controlled 3D designs of mechanical parts and assemblie
s');
ENDSEC;
END-ISO-10303-21;
